<?xml version="1.0" standalone="no"?>
<!DOCTYPE svg PUBLIC "-//W3C//DTD SVG 20010904//EN"
 "http://www.w3.org/TR/2001/REC-SVG-20010904/DTD/svg10.dtd">
<svg version="1.0" xmlns="http://www.w3.org/2000/svg"
 width="2500.000000pt" height="2500.000000pt" viewBox="0 0 2500.000000 2500.000000"
 preserveAspectRatio="xMidYMid meet">
<metadata>
Created by potrace 1.11, written by Peter Selinger 2001-2013
</metadata>
<g transform="translate(0.000000,2500.000000) scale(0.100000,-0.100000)"
fill="#000000" stroke="none">
<path d="M12440 22724 c-1305 -45 -2317 -307 -3247 -840 -1805 -1034 -3008
-2853 -3572 -5399 -205 -928 -323 -1846 -383 -2985 -18 -331 -18 -1737 0
-2070 58 -1103 161 -1962 338 -2810 459 -2198 1386 -3914 2674 -4949 995 -800
2180 -1240 3685 -1367 258 -21 982 -30 1253 -15 1936 110 3437 819 4543 2146
951 1142 1610 2756 1958 4795 46 265 91 561 91 590 0 20 -12 20 -999 20 l-998
0 -7 -72 c-83 -865 -317 -1876 -603 -2603 -458 -1162 -1165 -2062 -2057 -2617
-168 -105 -473 -261 -646 -332 -396 -160 -801 -258 -1300 -312 -197 -21 -757
-30 -975 -15 -889 61 -1624 301 -2242 735 -633 444 -1160 1024 -1558 1716
-767 1332 -1200 3168 -1286 5445 -13 347 -7 1313 10 1615 81 1419 267 2574
577 3588 271 885 661 1688 1102 2272 155 204 295 364 486 555 611 609 1252
979 2023 1166 708 172 1578 190 2296 48 1101 -218 2077 -822 2719 -1683 496
-664 886 -1557 1173 -2681 50 -196 128 -539 156 -682 l12 -63 998 0 999 0 0
23 c0 31 -53 364 -90 565 -252 1365 -734 2564 -1415 3517 -722 1008 -1674
1771 -2762 2211 -655 264 -1365 421 -2153 473 -161 11 -652 20 -800 15z"/>
<path d="M16576 15438 c-22 -73 -1592 -5107 -1610 -5165 l-7 -23 298 0 298 0
199 663 c110 364 205 677 212 695 l13 32 940 0 c886 0 941 -1 949 -17 5 -10
100 -323 213 -695 l204 -678 303 0 304 0 -5 23 c-4 12 -374 1198 -824 2634
l-818 2613 -322 0 -322 0 -25 -82z m743 -1993 l377 -1260 -388 -3 c-213 -1
-563 -1 -776 0 l-389 3 373 1235 c206 679 381 1260 390 1290 17 55 17 55 26
25 5 -16 179 -597 387 -1290z"/>
<path d="M19340 12885 l0 -2635 290 0 290 0 0 843 0 842 323 407 c240 304 325
403 332 394 6 -7 323 -570 705 -1250 l695 -1236 348 0 349 0 -20 33 c-11 17
-396 704 -857 1525 -585 1043 -834 1496 -827 1505 30 39 1629 2184 1636 2195
6 9 -68 12 -357 12 l-365 0 -979 -1316 -978 -1315 -3 1315 -2 1316 -290 0
-290 0 0 -2635z"/>
</g>
</svg>
